<svg xmlns="http://www.w3.org/2000/svg" width="398.18799" height="495.3331" version="1.2" viewBox="0 0 201.08493 250.0899"><path d="m201.085 137.322-101.908 25.15L0 137.171v112.946l99.126-25.282 101.959 25.092Z" style="fill:#c10c1a"/><path d="M12.58 154.906c-.48 0-.72.24-.72.48v77.069c0 .48.29.72.77.48l7.732-1.68c.24 0 .278-.207.278-.447V203.68c0-.48.242-.688.72-.72l3.09-.202c5.183-.322 10.28-4.464 10.28-10.702v-23.07c.24-5.29-3.6-9.978-8.88-11.178l-4.35-.96Zm171.01.07c-1.749-.065-3.949.31-6.649.834-8.17 1.7-11.29 3.27-11.29 13.6v5.52c0 18.03 14.65 23.81 14.65 36.3v8.18c-.094 2.916-1.35 3.435-3.36 3.115-2.4-.24-3.36-.956-3.36-5.756v-12.6c0-.96-.81-.953-4.57-.953-3.26 0-3.511-.078-3.511.882v13.631c0 11.77 3.991 12.864 11.441 14.544 10.32 2.42 12.4-1.094 12.4-11.904v-8.18c0-19.47-14.958-24.03-14.958-37.02 0-1.44-.24-4.8 0-6.48 0-2.65 1.118-3.37 3.278-3.61 1.92-.48 3.12.72 3.12 3.61v11.78c0 .72 1.68.72 4.56.72 2.4 0 3.76 0 3.76-.72V164.82c0-7.438-1.664-9.702-5.511-9.844Zm-22.5 5.068a.891.891 0 0 0-.284 0l-15.81 3.406c-.24 0-.48.24-.48.48l.05 60.04c0 .25.24.49.48.49l15.62 3.6c.48 0 .723-.24.72-.72l-.05-8.645c-.002-.24 0-.48-.48-.48l-7.562-1.37c-.48 0-.479-.24-.479-.48V197.59c0-.24.24-.48.48-.48l5.616-.34c.48 0 .631-.24.631-.72v-7.894c0-.261-.21-.46-.631-.444l-5.617.207c-.24 0-.479-.24-.479-.72V171.62c0-.24.24-.48.48-.48l7.639-1.278c.24 0 .48-.24.48-.48v-8.746c0-.36-.088-.547-.323-.592Zm-121.137.822c-.367-.07-.848.038-.876.48v65.119c.027.368.273.533.653.47l6.53-1.301c.48-.24.481-.48.48-.72l-.05-27.318c0-.24.24-.48.72-.48h2.4c1.574 0 2.512 1.11 2.64 2.639l.101 23.781c.057.509.444.621.96.51l6.02-1.302c.24-.24.244-.48.24-.72l.097-21.323c-.24-3.36-.72-6.133-4.32-7.813 3.36-1.44 3.883-4.193 3.883-7.323v-14.18c0-4.32-1.681-6.49-5.781-7.45Zm-18.632 4.85 1.46.291c2.796.596 4.46 2.99 4.46 5.63v18.447c0 2.16-1.584 4.215-3.98 4.371l-1.94.126c-.239.016-.72-.24-.72-.48v-14.245l.05-13.66c.002-.266.271-.54.67-.48Zm111.901.427a.743.743 0 0 0-.313.008l-6.615 1.41c-.24 0-.48.241-.48.481v51.898c0 .24.24.48.48.48l13.528 2.925c.31.137.66-.107.66-.347v-7.848c0-.24-.08-.433-.48-.48l-5.977-.986c-.24 0-.48-.24-.48-.48v-46.58c0-.198-.072-.425-.323-.481Zm-67.637.382c-.27.045-.405.36-.405.54v53.86c0 .24.24.48.72.48l6.01-1.44c.24 0 .48-.24.48-.48V168.65c0-.23-.075-.48-.48-.72l-6.01-1.345a.51.51 0 0 0-.315-.06Zm13.106 2.852c-.48 0-.72.088-.72.568v48.1c0 .48.24.72.72.48l4.939-.96c.24 0 .48-.24.48-.72v-23.984c.006 0 .018-.24.24-.24h.24c.177.002.24.21.24.24l5.62 22.544c0 .48.24.48.72.48l4.24-.96c.24 0 .48-.24.48-.5v-40.88c0-.24-.24-.48-.48-.48l-4.459-.96c-.24-.24-.72 0-.72.48v19.265c0 .24-.117.389-.46.389-.39-.003-.49-.144-.555-.389l-.225-.72-4.641-20.074c-.07-.266-.181-.413-.48-.479Zm37.06.808c-.397.005-.82.064-1.27.184l-3.12.72c0 .023-3.58.672-6.22 1.297-4.098.96-4.226 2.831-4.288 7.171v29.272c0 3.6.847 6.321 4.457 7.041l8.931 1.92c4.08.96 6.24-2.46 6.24-6.56v-17.712c0-.48-.24-.72-.48-.72h-7.935c-.24 0-.48.24-.48.48v6.85c0 .24.24.481.48.481l1.455.05v7.93c0 .738-.478 1.475-1.2 1.435l-2.83-.24c-.72 0-1.63-.956-1.68-1.914v-28.431c.369-1.508 1.077-1.531 1.613-1.8l2.177-.239c.877 0 1.609.53 1.609 1.49v6.073c.012.577.248.763.633.748l5.688-.211c.48-.018.48-.48.48-.72l-.01-8.15c-.004-3.798-1.47-6.478-4.25-6.445Zm-68.315.33 2.268.642c1.861.664 2.607 2.056 2.607 3.508.147 4.783.186 9.879-.131 14.028-.187 1.101-1.258 1.846-2.462 1.846h-2.03c-.733 0-.972-.205-.972-.732v-18.572c0-.48.377-.787.72-.72ZM8.589 107.156c7.255 38.935 54.706 63.121 105.774 53.453 51.32-9.437 86.659-48.855 79.404-88.032C186.5 33.4 139.06 9.456 87.972 18.883 36.904 28.56 1.323 67.979 8.59 107.156Z" style="fill:#fff"/><path d="M136.685-.027a13.072 13.072 0 0 0-4.14.671c-3.608 1.208-6.547 3.95-8.471 8.056-.481.745-.24 1.712.481 2.437.722.483 1.632.64 2.354.156 1.443-1.207 2.886-1.932 4.81-2.676 8.43-2.9 17.596 1.154 21.901 9.924 0 .252.482.493.722.493h.482c.5-.241.741-.735.741-1.218-.094-.725-.372-1.45-.482-1.933-1.906-6.098-6.169-11.614-11.46-14.271-2.256-1.057-4.61-1.643-6.938-1.639ZM70.012.387C57.994.282 47.708 11.686 46.761 25.87v2.16c0 .74.48.98.96 1.22h.241c.481 0 .722-.48.963-.96C51.57 16.74 62.41 8.56 74.684 9.06c2.645 0 5.53.48 8.175 1.68.722.24 1.444 0 1.925-.72.721-.96.48-1.94 0-2.66C80.936 3.04 75.886.64 70.585.4a18.845 18.845 0 0 0-.573-.013ZM176.516 57.768c-.96-.48-1.681.24-1.201.96 1.921 4.1 1.87 10.1-4.384 10.1-6.965 0-16.092-8.66-28.361-8.66-8.657 0-18.264 6.02-19.225 19.47-5.784-8.89-16.01-14.89-28.27-14.89-22.597 0-38.699 27.4-57.463 27.4-8.166 0-10.618-7.21-8.937-12.75.24-.96-.72-1.68-1.44-.96-6.506 5.06-8.667 13.71-8.667 22.13 0 22.83 23.378 42.3 54.39 42.3 29.563 0 54.66-17.79 55.62-43.76 6.005 8.66 16.153 13.71 26.501 13.71 16.583 0 32.245-11.77 32.245-31.74 0-9.12-4.804-19.71-10.808-23.31ZM141.304 31.284c-3.367-.034-5.95 3.94-5.458 8.977.276 5.546 3.923 10.33 7.77 10.545 3.607.217 6.224-3.886 5.709-9.19-.515-5.285-3.672-10.082-7.519-10.297a4.343 4.343 0 0 0-.502-.035ZM75.59 37.151c-4.347.21-7.218 5.014-6.536 11.244.683 5.981 4.994 11.073 9.33 10.863 4.335.028 7.018-5.067 6.337-11.287-.924-5.993-4.796-10.791-9.13-10.82Z" style="fill:#1c1c1a"/></svg>